<?xml version="1.0" standalone="no"?>
<!DOCTYPE svg PUBLIC "-//W3C//DTD SVG 20010904//EN"
 "http://www.w3.org/TR/2001/REC-SVG-20010904/DTD/svg10.dtd">
<svg version="1.0" xmlns="http://www.w3.org/2000/svg"
 width="512.000000pt" height="512.000000pt" viewBox="0 0 512.000000 512.000000"
 preserveAspectRatio="xMidYMid meet">
<metadata>
Created by potrace 1.14, written by Peter Selinger 2001-2017
</metadata>
<g transform="translate(0.000000,512.000000) scale(0.100000,-0.100000)"
fill="#000000" stroke="none">
<path d="M2305 3965 c-202 -31 -383 -108 -522 -219 -199 -161 -306 -372 -343
-676 -13 -109 -13 -858 0 -975 57 -508 368 -821 889 -896 120 -17 421 -6 531
19 208 49 373 136 503 266 120 120 193 253 245 445 l26 96 4 505 c4 525 0 594
-39 738 -45 168 -130 313 -251 428 -156 148 -357 239 -603 273 -101 14 -339
12 -440 -4z m426 -460 c190 -49 328 -191 386 -395 16 -59 18 -109 18 -525 0
-415 -2 -466 -18 -525 -76 -270 -280 -419 -575 -420 -249 0 -439 105 -532 294
-69 139 -72 169 -68 686 4 406 6 461 22 510 90 273 296 408 602 395 56 -2 130
-11 165 -20z"/>
</g>
</svg>
