<svg xmlns="http://www.w3.org/2000/svg" width="123" height="50" version="1.1"><g id="barcode" fill="#000"><rect width="123" height="59" x="0" y="0" fill="transparent"/><rect width="2" height="50" x="0" y="0"/><rect width="1" height="50" x="3" y="0"/><rect width="1" height="50" x="6" y="0"/><rect width="1" height="50" x="11" y="0"/><rect width="3" height="50" x="15" y="0"/><rect width="2" height="50" x="19" y="0"/><rect width="2" height="50" x="22" y="0"/><rect width="1" height="50" x="28" y="0"/><rect width="1" height="50" x="30" y="0"/><rect width="1" height="50" x="33" y="0"/><rect width="2" height="50" x="35" y="0"/><rect width="1" height="50" x="39" y="0"/><rect width="2" height="50" x="44" y="0"/><rect width="3" height="50" x="47" y="0"/><rect width="1" height="50" x="51" y="0"/><rect width="1" height="50" x="55" y="0"/><rect width="1" height="50" x="57" y="0"/><rect width="4" height="50" x="60" y="0"/><rect width="1" height="50" x="66" y="0"/><rect width="1" height="50" x="69" y="0"/><rect width="2" height="50" x="71" y="0"/><rect width="1" height="50" x="77" y="0"/><rect width="1" height="50" x="80" y="0"/><rect width="4" height="50" x="83" y="0"/><rect width="2" height="50" x="88" y="0"/><rect width="1" height="50" x="94" y="0"/><rect width="1" height="50" x="97" y="0"/><rect width="1" height="50" x="99" y="0"/><rect width="1" height="50" x="102" y="0"/><rect width="2" height="50" x="106" y="0"/><rect width="2" height="50" x="110" y="0"/><rect width="3" height="50" x="115" y="0"/><rect width="1" height="50" x="119" y="0"/><rect width="2" height="50" x="121" y="0"/></g></svg>