<?xml version="1.0" standalone="no"?>
<!DOCTYPE svg>
<svg width="123" height="50" version="1.1"
   xmlns="http://www.w3.org/2000/svg">
   <g id="barcode" fill="#000000">
      <rect x="0" y="0" width="123" height="59" fill="transparent" />
      <rect x="0.00" y="0.00" width="2.00" height="50.00" />
      <rect x="3.00" y="0.00" width="1.00" height="50.00" />
      <rect x="6.00" y="0.00" width="1.00" height="50.00" />
      <rect x="11.00" y="0.00" width="1.00" height="50.00" />
      <rect x="15.00" y="0.00" width="3.00" height="50.00" />
      <rect x="19.00" y="0.00" width="2.00" height="50.00" />
      <rect x="22.00" y="0.00" width="2.00" height="50.00" />
      <rect x="28.00" y="0.00" width="1.00" height="50.00" />
      <rect x="30.00" y="0.00" width="1.00" height="50.00" />
      <rect x="33.00" y="0.00" width="1.00" height="50.00" />
      <rect x="35.00" y="0.00" width="2.00" height="50.00" />
      <rect x="39.00" y="0.00" width="1.00" height="50.00" />
      <rect x="44.00" y="0.00" width="2.00" height="50.00" />
      <rect x="47.00" y="0.00" width="3.00" height="50.00" />
      <rect x="51.00" y="0.00" width="1.00" height="50.00" />
      <rect x="55.00" y="0.00" width="1.00" height="50.00" />
      <rect x="57.00" y="0.00" width="1.00" height="50.00" />
      <rect x="60.00" y="0.00" width="4.00" height="50.00" />
      <rect x="66.00" y="0.00" width="1.00" height="50.00" />
      <rect x="69.00" y="0.00" width="1.00" height="50.00" />
      <rect x="71.00" y="0.00" width="2.00" height="50.00" />
      <rect x="77.00" y="0.00" width="1.00" height="50.00" />
      <rect x="80.00" y="0.00" width="1.00" height="50.00" />
      <rect x="83.00" y="0.00" width="4.00" height="50.00" />
      <rect x="88.00" y="0.00" width="2.00" height="50.00" />
      <rect x="94.00" y="0.00" width="1.00" height="50.00" />
      <rect x="97.00" y="0.00" width="1.00" height="50.00" />
      <rect x="99.00" y="0.00" width="1.00" height="50.00" />
      <rect x="102.00" y="0.00" width="1.00" height="50.00" />
      <rect x="106.00" y="0.00" width="2.00" height="50.00" />
      <rect x="110.00" y="0.00" width="2.00" height="50.00" />
      <rect x="115.00" y="0.00" width="3.00" height="50.00" />
      <rect x="119.00" y="0.00" width="1.00" height="50.00" />
      <rect x="121.00" y="0.00" width="2.00" height="50.00" />
   </g>
</svg>
