<svg xmlns="http://www.w3.org/2000/svg" width="384" height="43" fill="none" viewBox="0 0 384 43"><g clip-path="url(#clip0_1_156)"><path fill="#000" d="M6.2439 0H0V43H6.2439V0Z"/><path fill="#000" d="M12.4878 0H9.36584V43H12.4878V0Z"/><path fill="#000" d="M21.8536 0H18.7317V43H21.8536V0Z"/><path fill="#000" d="M37.4634 0H34.3415V43H37.4634V0Z"/><path fill="#000" d="M56.1951 0H46.8293V43H56.1951V0Z"/><path fill="#000" d="M65.561 0H59.3171V43H65.561V0Z"/><path fill="#000" d="M74.9268 0H68.6829V43H74.9268V0Z"/><path fill="#000" d="M90.5366 0H87.4146V43H90.5366V0Z"/><path fill="#000" d="M96.7805 0H93.6586V43H96.7805V0Z"/><path fill="#000" d="M106.146 0H103.024V43H106.146V0Z"/><path fill="#000" d="M115.512 0H109.268V43H115.512V0Z"/><path fill="#000" d="M124.878 0H121.756V43H124.878V0Z"/><path fill="#000" d="M143.61 0H137.366V43H143.61V0Z"/><path fill="#000" d="M156.098 0H146.732V43H156.098V0Z"/><path fill="#000" d="M162.341 0H159.219V43H162.341V0Z"/><path fill="#000" d="M174.829 0H171.707V43H174.829V0Z"/><path fill="#000" d="M181.073 0H177.951V43H181.073V0Z"/><path fill="#000" d="M199.805 0H187.317V43H199.805V0Z"/><path fill="#000" d="M209.171 0H206.049V43H209.171V0Z"/><path fill="#000" d="M218.537 0H215.415V43H218.537V0Z"/><path fill="#000" d="M227.902 0H221.659V43H227.902V0Z"/><path fill="#000" d="M243.512 0H240.39V43H243.512V0Z"/><path fill="#000" d="M252.878 0H249.756V43H252.878V0Z"/><path fill="#000" d="M271.61 0H259.122V43H271.61V0Z"/><path fill="#000" d="M280.976 0H274.732V43H280.976V0Z"/><path fill="#000" d="M296.585 0H293.463V43H296.585V0Z"/><path fill="#000" d="M305.951 0H302.829V43H305.951V0Z"/><path fill="#000" d="M312.195 0H309.073V43H312.195V0Z"/><path fill="#000" d="M321.561 0H318.439V43H321.561V0Z"/><path fill="#000" d="M337.171 0H330.927V43H337.171V0Z"/><path fill="#000" d="M349.659 0H343.415V43H349.659V0Z"/><path fill="#000" d="M368.39 0H359.024V43H368.39V0Z"/><path fill="#000" d="M374.634 0H371.512V43H374.634V0Z"/><path fill="#000" d="M384 0H377.756V43H384V0Z"/></g><defs><clipPath id="clip0_1_156"><rect width="384" height="43" fill="transparent"/></clipPath></defs></svg>